<svg version="1.1" xmlns="http://www.w3.org/2000/svg" width="64" height="64" color="hsl(353, 100%, 78%)" transform="rotate(0) scale(1, 1)"><path d="M0 0 C1 1 1 1 1.01953125 3.15234375 C0.20974685 14.04623574 -2.82234878 22.51048773 -11 30 C-12.53961212 30.98239401 -14.08134157 31.96147637 -15.625 32.9375 C-20.89481108 36.76927789 -21.90815649 41.77220474 -23.24072266 47.87084961 C-24.38185683 52.8829231 -25.73036791 55.76581761 -30 59 C-31.32 59 -32.64 59 -34 59 C-34 55.04 -34 51.08 -34 47 C-36.97017694 47.62810173 -36.97017694 47.62810173 -40 49 C-40.71727778 50.64551962 -41.38325228 52.31422289 -42 54 C-46.21811943 57.6908545 -51.57827833 57.9598391 -57 58 C-58 57 -58 57 -58.25 53.875 C-57.91666586 48.70832076 -56.78143649 44.67347064 -52.9375 41.0625 C-51 40 -51 40 -49 40 C-48.34 38.02 -47.68 36.04 -47 34 C-50.96 34 -54.92 34 -59 34 C-57.75693923 27.78469617 -57.75693923 27.78469617 -54 25 C-52.04930644 24.44845255 -50.09346462 23.90561864 -48.11132812 23.48071289 C-38.80983264 21.48129754 -34.71499218 18.46082543 -29.17578125 10.8828125 C-23.63943004 3.54739563 -16.75462661 1.27910226 -8.015625 -0.65234375 C-5.0119054 -0.99862749 -2.89004429 -0.83686534 0 0 Z M-10.0625 3.5 C-11.16722656 3.7784375 -12.27195312 4.056875 -13.41015625 4.34375 C-14.26480469 4.5603125 -15.11945312 4.776875 -16 5 C-15.01 6.98 -14.02 8.96 -13 11 C-13.763125 10.505 -14.52625 10.01 -15.3125 9.5 C-17.92363751 7.75631692 -17.92363751 7.75631692 -21 8 C-26.490523 12.06298702 -30.53212561 16.9075623 -34.77734375 22.23046875 C-37.73941291 25.92134227 -40.85213979 29.46751378 -44 33 C-43.11032656 34.08839774 -42.21288426 35.17044608 -41.3125 36.25 C-40.81363281 36.85328125 -40.31476562 37.4565625 -39.80078125 38.078125 C-37.7086495 40.3109424 -35.42150931 42.13539658 -33 44 C-28.32038541 40.01491034 -23.65545358 36.01327922 -19 32 C-17.50726563 30.71802734 -17.50726563 30.71802734 -15.984375 29.41015625 C-7.74671323 22.19603629 -3.69611924 15.98514609 -2 5 C-2.495 3.515 -2.495 3.515 -3 2 C-5.34407289 2 -7.81424544 2.9320199 -10.0625 3.5 Z M-48 26.25 C-48.886875 26.48203125 -49.77375 26.7140625 -50.6875 26.953125 C-53.15370088 27.81155286 -53.15370088 27.81155286 -54.3125 30.109375 C-54.539375 30.73328125 -54.76625 31.3571875 -55 32 C-50.95244357 32.49283264 -50.95244357 32.49283264 -47 32 C-44.55696597 29.96073101 -42.7722575 27.63153386 -41 25 C-43.50581194 25 -45.58172908 25.58919341 -48 26.25 Z M-45 38 C-45.44290923 42.00346023 -45.44290923 42.00346023 -43 44.25 C-42.34 44.8275 -41.68 45.405 -41 46 C-40.01 45.67 -39.02 45.34 -38 45 C-38.97566112 43.83040013 -39.955625 42.66438823 -40.9375 41.5 C-41.48277344 40.8503125 -42.02804688 40.200625 -42.58984375 39.53125 C-43.05519531 39.0259375 -43.52054688 38.520625 -44 38 C-44.33 38 -44.66 38 -45 38 Z M-50 43 C-53.75960806 46.75960806 -54.58894145 49.75900345 -55 55 C-48.64527731 54.26997883 -48.64527731 54.26997883 -43.9375 50.375 C-43.628125 49.59125 -43.31875 48.8075 -43 48 C-44.62339805 46.29115995 -46.29319053 44.62553283 -48 43 C-48.66 43 -49.32 43 -50 43 Z M-30.125 44.5 C-32.83547375 48.11396501 -32.29634575 50.55481374 -32 55 C-30.00136244 54.42055068 -30.00136244 54.42055068 -28 53 C-26.42687589 49.38181456 -26 46.97906647 -26 43 C-28.16119096 42.80777227 -28.16119096 42.80777227 -30.125 44.5 Z " fill="#ff8f9c" transform="translate(62,2)" ></path><path d="M0 0 C0.70125 0.00515625 1.4025 0.0103125 2.125 0.015625 C2.82625 0.01046875 3.5275 0.0053125 4.25 0 C6.125 0.265625 6.125 0.265625 8.125 2.265625 C8.390625 4.140625 8.390625 4.140625 8.375 6.265625 C8.38015625 6.966875 8.3853125 7.668125 8.390625 8.390625 C8.125 10.265625 8.125 10.265625 6.125 12.265625 C4.25 12.53125 4.25 12.53125 2.125 12.515625 C1.42375 12.52078125 0.7225 12.5259375 0 12.53125 C-1.875 12.265625 -1.875 12.265625 -3.875 10.265625 C-4.140625 8.390625 -4.140625 8.390625 -4.125 6.265625 C-4.13015625 5.564375 -4.1353125 4.863125 -4.140625 4.140625 C-3.75603481 1.4258707 -2.7147543 0.38459019 0 0 Z M0.125 3.265625 C-0.205 4.915625 -0.535 6.565625 -0.875 8.265625 C1.6 8.760625 1.6 8.760625 4.125 9.265625 C4.455 7.615625 4.785 5.965625 5.125 4.265625 C3.475 3.935625 1.825 3.605625 0.125 3.265625 Z " fill="#ff8f9c" transform="translate(40.875,14.734375)" ></path><path d="M0 0 C1.32 0.33 2.64 0.66 4 1 C4.33 2.32 4.66 3.64 5 5 C3.68 4.67 2.36 4.34 1 4 C0.67 2.68 0.34 1.36 0 0 Z " fill="#ff8f9c" transform="translate(50,14)" ></path><path d="M0 0 C1.32 0.66 2.64 1.32 4 2 C3.67 2.99 3.34 3.98 3 5 C1.68 4.34 0.36 3.68 -1 3 C-0.67 2.01 -0.34 1.02 0 0 Z " fill="#ff8f9c" transform="translate(31,29)" ></path><path d="M0 0 C1.32 0.33 2.64 0.66 4 1 C4 1.99 4 2.98 4 4 C2.68 3.67 1.36 3.34 0 3 C0 2.01 0 1.02 0 0 Z " fill="#ff8f9c" transform="translate(27,33)" ></path><path d="M0 0 C1.32 0.33 2.64 0.66 4 1 C4 1.99 4 2.98 4 4 C2.68 3.67 1.36 3.34 0 3 C0 2.01 0 1.02 0 0 Z " fill="#ff8f9c" transform="translate(34,26)" ></path><path d="M0 0 C1.32 0.33 2.64 0.66 4 1 C4 1.99 4 2.98 4 4 C2.68 3.34 1.36 2.68 0 2 C0 1.34 0 0.68 0 0 Z " fill="#ff8f9c" transform="translate(23,37)" ></path></svg>