<svg version="1.1" xmlns="http://www.w3.org/2000/svg" width="512px" height="512px" transform="rotate(0) scale(1, 1)" stroke-width="20px">
<path d="M0 0 C1.76947998 -0.00574036 1.76947998 -0.00574036 3.57470703 -0.01159668 C6.06608942 -0.01431581 8.55750036 -0.0069547 11.04882812 0.00976562 C14.86132482 0.03117321 18.67193689 0.00996183 22.484375 -0.015625 C24.90625416 -0.01298173 27.32813214 -0.00785676 29.75 0 C30.88969238 -0.00809692 32.02938477 -0.01619385 33.20361328 -0.02453613 C37.53641107 0.02677935 41.04171908 0.21026759 45.10229492 1.77441406 C48.15587256 6.52320881 47.48128895 11.66491032 47.36328125 17.171875 C47.35620651 18.40919373 47.34913177 19.64651245 47.34184265 20.92132568 C47.31860174 24.20322726 47.27371955 27.48389431 47.21832275 30.76538086 C47.1670777 34.11690901 47.14474425 37.46849022 47.11914062 40.8203125 C47.06399735 47.39110763 46.98031265 53.96107786 46.875 60.53125 C47.70470306 60.52014694 48.53440613 60.50904388 49.38925171 60.49760437 C57.24446659 60.39702737 65.0994623 60.32109592 72.9551754 60.27218914 C76.99302221 60.2461993 81.0303328 60.21099895 85.06787109 60.15405273 C88.97125064 60.09934916 92.87411754 60.06974983 96.7778511 60.05686378 C98.26010829 60.04769201 99.74234039 60.02978283 101.22437668 60.00259972 C109.99817394 59.84821121 117.54114644 60.16896819 124.875 65.53125 C130.80512237 71.67122257 132.19004867 78.9134819 132.10205078 87.30249023 C132.10234283 88.04478378 132.10263489 88.78707733 132.10293579 89.55186462 C132.10155342 91.98131404 132.08604439 94.41044857 132.0703125 96.83984375 C132.06657847 98.53377617 132.06373334 100.22771076 132.06173706 101.92164612 C132.05413128 106.36203054 132.03450928 110.8022824 132.0123291 115.24261475 C131.9918046 119.78086555 131.98272126 124.31913795 131.97265625 128.85742188 C131.9512603 137.74875589 131.91716155 146.63999189 131.875 155.53125 C132.62198151 155.66845459 133.36896301 155.80565918 134.13858032 155.94702148 C136.44382759 156.43919423 138.46860435 157.03127172 140.65771484 157.87890625 C141.36465988 158.15040497 142.07160492 158.42190369 142.79997253 158.70162964 C143.55434097 158.99602936 144.30870941 159.29042908 145.0859375 159.59375 C145.88320755 159.90112091 146.6804776 160.20849182 147.50190735 160.525177 C150.0863193 161.52283539 152.66833783 162.52649919 155.25 163.53125 C157.02053901 164.21871651 158.79112835 164.90605338 160.56176758 165.59326172 C163.20334991 166.61858188 165.84477946 167.64427803 168.48548889 168.67184448 C173.45249008 170.60220304 178.43003382 172.49688695 183.42578125 174.3515625 C184.48555176 174.74988281 185.54532227 175.14820313 186.63720703 175.55859375 C188.52836523 176.26821211 190.42367246 176.96691168 192.32373047 177.65234375 C200.63403085 180.80704478 200.63403085 180.80704478 202.875 185.53125 C203.43278235 189.75064853 203.39254526 193.90636513 203.3125 198.15625 C203.29050537 200.02120117 203.29050537 200.02120117 203.26806641 201.92382812 C201.91546412 270.12255226 175.23235494 335.96993998 136.875 391.53125 C165.56899971 399.46844078 186.7636012 398.69264802 214.46533203 387.70532227 C226.16084799 383.08650488 242.63245032 378.20393211 255 382.65625 C257.59007882 385.24632882 257.875 386.89419415 257.875 390.53125 C255.74456522 395.09646739 255.74456522 395.09646739 252.875 396.53125 C251.54331637 396.69155524 250.20571209 396.80442199 248.8671875 396.890625 C233.77277669 398.02035221 221.16236156 401.68593395 207.25244141 407.42944336 C180.39231341 418.35723299 152.13167826 414.36338467 126.02441406 403.76025391 C102.17629903 394.1135985 79.41542468 395.95739307 55.875 405.53125 C26.30034044 417.33334419 -2.58448022 415.67610417 -31.66796875 403.3671875 C-36.69767792 401.24952656 -41.77762044 399.63540175 -47.125 398.53125 C-48.44371094 398.25861328 -48.44371094 398.25861328 -49.7890625 397.98046875 C-67.37081772 395.61290218 -83.0050098 398.37105543 -99.25 404.96875 C-127.21685631 416.27479106 -155.27305141 416.61956146 -183.21386719 405.29980469 C-194.50015614 400.76106713 -204.84131481 397.75094834 -217 397.21875 C-221.18654398 396.92469513 -222.87447356 396.68898887 -226.5 394.40625 C-228.125 391.53125 -228.125 391.53125 -228.25 387.90625 C-227.125 384.53125 -227.125 384.53125 -225.25 382.59375 C-209.76332739 377.32828131 -190.74208237 384.90841831 -176.44873047 390.87353516 C-152.93798938 400.62961022 -131.00724766 398.77592686 -107.125 391.53125 C-107.52702637 390.92877441 -107.92905273 390.32629883 -108.34326172 389.70556641 C-116.83979152 376.93289437 -125.01987161 364.13387363 -132.125 350.53125 C-132.47079102 349.87141113 -132.81658203 349.21157227 -133.17285156 348.53173828 C-135.57906989 343.90660515 -137.87592723 339.23455113 -140.125 334.53125 C-140.47385254 333.8084082 -140.82270508 333.08556641 -141.18212891 332.34082031 C-156.06802838 301.25890179 -166.41413098 267.68184139 -171.125 233.53125 C-171.24069336 232.71640137 -171.35638672 231.90155273 -171.47558594 231.06201172 C-172.94970395 220.2685809 -173.36330765 209.48101692 -173.5 198.59375 C-173.52610352 197.37792236 -173.55220703 196.16209473 -173.57910156 194.90942383 C-173.58135742 193.76497803 -173.58361328 192.62053223 -173.5859375 191.44140625 C-173.59415527 190.42183838 -173.60237305 189.40227051 -173.61083984 188.35180664 C-172.94971379 184.51362107 -172.02055837 183.1794923 -169.125 180.53125 C-165.70688088 178.75434603 -162.15318872 177.43146299 -158.54296875 176.09765625 C-156.97341179 175.49702614 -156.97341179 175.49702614 -155.37214661 174.88426208 C-152.02413798 173.60652883 -148.66872787 172.34971434 -145.3125 171.09375 C-143.09646916 170.25336529 -140.8809681 169.41158218 -138.66601562 168.56835938 C-135.43809642 167.33990183 -132.20957132 166.11333746 -128.97775269 164.89517212 C-121.87253899 162.21556953 -114.82377699 159.42663436 -107.8137207 156.50756836 C-105.125 155.53125 -105.125 155.53125 -102.125 155.53125 C-102.13499275 154.13302757 -102.13499275 154.13302757 -102.14518738 152.70655823 C-102.2061717 143.89442931 -102.25105548 135.08234357 -102.28043652 126.270051 C-102.29604973 121.74024681 -102.31720805 117.21061387 -102.35131836 112.6809082 C-102.38406753 108.30424773 -102.40188564 103.92775132 -102.40963173 99.55097771 C-102.41514744 97.88652911 -102.42591792 96.22208884 -102.44219017 94.55771065 C-102.53331699 84.84504381 -102.50892294 76.48695437 -97.5625 67.78125 C-89.20494971 60.06658819 -80.08237991 59.84471404 -69.2734375 60.04296875 C-67.76316508 60.05231388 -66.25287733 60.05942194 -64.74258423 60.06440735 C-60.79999694 60.0833441 -56.85835557 60.13232544 -52.9161377 60.18792725 C-48.88041982 60.23941104 -44.84454655 60.26198302 -40.80859375 60.28710938 C-32.91363221 60.34046094 -25.01943433 60.42560695 -17.125 60.53125 C-17.13610306 59.83856018 -17.14720612 59.14587036 -17.15864563 58.43218994 C-17.26916656 51.22998941 -17.34463778 44.02802928 -17.3996582 36.82519531 C-17.42199963 34.13609968 -17.45680593 31.44759206 -17.50219727 28.75878906 C-17.56277116 24.89631256 -17.59119417 21.03473938 -17.61328125 17.171875 C-17.63908768 15.9675885 -17.6648941 14.763302 -17.69148254 13.52252197 C-17.69421374 5.41646713 -17.69421374 5.41646713 -15.35229492 1.77441406 C-10.277333 -0.18047709 -5.39328761 -0.03831651 0 0 Z M-3.125 15.53125 C-3.125 30.38125 -3.125 45.23125 -3.125 60.53125 C8.755 60.53125 20.635 60.53125 32.875 60.53125 C32.875 45.68125 32.875 30.83125 32.875 15.53125 C20.995 15.53125 9.115 15.53125 -3.125 15.53125 Z M-85.91621399 78.23773193 C-87.55806494 81.35293576 -87.4851093 83.71157581 -87.46557617 87.22753906 C-87.46601425 87.89136597 -87.46645233 88.55519287 -87.46690369 89.23913574 C-87.46481971 91.42535182 -87.44150855 93.6107935 -87.41796875 95.796875 C-87.41237137 97.3157306 -87.40810194 98.83459163 -87.40510559 100.35345459 C-87.3936679 104.34516432 -87.36421027 108.336545 -87.33099365 112.328125 C-87.3002694 116.40360056 -87.28659524 120.47912944 -87.27148438 124.5546875 C-87.23933928 132.54702577 -87.18815624 140.53909691 -87.125 148.53125 C-83.86002463 147.94278513 -80.87863151 147.16395577 -77.78930664 145.95922852 C-76.95549973 145.63638382 -76.12169281 145.31353912 -75.26261902 144.98091125 C-73.91252495 144.45088753 -73.91252495 144.45088753 -72.53515625 143.91015625 C-71.57849564 143.53815598 -70.62183502 143.1661557 -69.63618469 142.78288269 C-67.56646403 141.97738532 -65.4974745 141.17000734 -63.42913818 140.36096191 C-60.16318838 139.08424617 -56.89465327 137.81435645 -53.62548828 136.54589844 C-43.44252998 132.58957056 -33.2725817 128.60394268 -23.13529968 124.53184509 C-18.93080527 122.84347097 -14.72203105 121.16590587 -10.51315308 119.48849487 C-8.51243771 118.6868916 -6.51412863 117.87925488 -4.51834106 117.06546021 C-1.73394325 115.9302005 1.05769844 114.81484164 3.8515625 113.703125 C4.66614426 113.3645195 5.48072601 113.025914 6.31999207 112.67704773 C15.18855263 109.19708472 21.73432615 112.00813112 30.203125 115.40625 C31.20982239 115.80318054 32.21651978 116.20011108 33.25372314 116.60906982 C36.54695843 117.9094833 39.83589245 119.22043586 43.125 120.53125 C45.40269593 121.43207113 47.68069399 122.33212868 49.95898438 123.23144531 C60.18154514 127.27050081 70.39271169 131.33816677 80.60369873 135.40637207 C84.5864934 136.99239979 88.57051317 138.57533759 92.55456543 140.15820312 C95.34063557 141.2675667 98.1240192 142.38347714 100.90722656 143.5 C102.59431107 144.17210088 104.28148053 144.84398859 105.96875 145.515625 C106.73197571 145.82401306 107.49520142 146.13240112 108.28155518 146.45013428 C111.29379595 147.64360788 113.60357602 148.53125 116.875 148.53125 C116.96775026 139.751576 117.03879012 130.97207108 117.08224869 122.19201374 C117.10310852 118.11489346 117.13139619 114.03810878 117.17675781 109.96118164 C117.22027382 106.02542518 117.24414918 102.08999118 117.25450897 98.15401268 C117.26189011 96.65369784 117.27630403 95.15340031 117.29792023 93.65322304 C117.32703262 91.54878469 117.33095302 89.44567233 117.32910156 87.34106445 C117.33798401 86.14415482 117.34686646 84.94724518 117.35601807 83.71406555 C116.77268595 79.85425519 115.67037745 78.22001236 112.875 75.53125 C109.15172864 74.13302663 105.21229447 74.38905996 101.29042053 74.39753723 C100.52282282 74.39527167 99.7552251 74.39300612 98.96436685 74.39067191 C96.39037318 74.38433802 93.81643225 74.38516088 91.24243164 74.38598633 C89.39776033 74.38299449 87.55308965 74.3795919 85.7084198 74.37580872 C80.69608076 74.36696779 75.68375879 74.36463058 70.67141271 74.36399293 C66.48887401 74.36304383 62.30633929 74.35936557 58.12380213 74.35582083 C48.25774429 74.34767617 38.39169558 74.34523664 28.52563477 74.34594727 C18.34299326 74.3465483 8.16040469 74.33599139 -2.02222341 74.3202036 C-10.76116591 74.30713626 -19.5000911 74.30176302 -28.2390433 74.30240268 C-33.45997354 74.30265787 -38.68085674 74.29979479 -43.90177727 74.28922462 C-48.81093574 74.27955703 -53.72000205 74.27945526 -58.62916374 74.28674126 C-60.43151992 74.28778872 -62.2338818 74.28541467 -64.03622818 74.2793808 C-66.49540673 74.27168077 -68.95426539 74.27629241 -71.41343689 74.28401184 C-72.12764248 74.27886828 -72.84184808 74.27372471 -73.57769626 74.26842529 C-78.46425679 74.30235255 -82.29990736 74.79249202 -85.91621399 78.23773193 Z M21.875 128.53125 C21.875 143.71125 21.875 158.89125 21.875 174.53125 C28.47976247 177.53341476 34.92832423 180.42898745 41.6953125 182.95703125 C42.49956161 183.26120972 43.30381073 183.56538818 44.13243103 183.87878418 C45.8560501 184.53049982 47.58024122 185.18070429 49.30496216 185.82949829 C53.99960992 187.59628407 58.68918089 189.37644768 63.37890625 191.15625 C64.34189133 191.52152298 65.3048764 191.88679596 66.29704285 192.26313782 C75.86682016 195.89818119 85.40536011 199.61132731 94.9375 203.34375 C98.30462289 204.66162346 101.67181149 205.97932892 105.0390625 207.296875 C105.89492447 207.63180969 106.75078644 207.96674438 107.63258362 208.31182861 C119.0162658 212.76389093 130.41485677 217.17758299 141.8125 221.59375 C142.83876495 221.99139557 143.86502991 222.38904114 144.9223938 222.79873657 C146.42369339 223.38043106 146.42369339 223.38043106 147.95532227 223.97387695 C148.93695847 224.35428635 149.91859467 224.73469574 150.92997742 225.12663269 C152.84704278 225.86929811 154.76428503 226.61150711 156.68171692 227.35322571 C161.20693992 229.10459915 165.7284966 230.86437772 170.24267578 232.64404297 C171.07996719 232.97311142 171.91725861 233.30217987 172.77992249 233.64122009 C174.34569149 234.25715852 175.91040521 234.87578887 177.47386169 235.49757385 C181.06526907 237.00627054 181.06526907 237.00627054 184.875 237.53125 C185.40483113 234.34803583 185.89216117 231.15940119 186.375 227.96875 C186.51808594 227.11216797 186.66117188 226.25558594 186.80859375 225.37304688 C188.41178347 214.49425951 188.01139138 203.49790365 187.875 192.53125 C163.10747131 182.8144756 138.33906285 173.09996938 113.5625 163.40625 C112.63542236 163.04349976 111.70834473 162.68074951 110.75317383 162.30700684 C101.03879873 158.50596783 91.32388073 154.7063232 81.60780334 150.90963745 C77.48028694 149.29663691 73.35300113 147.68304679 69.22573853 146.06939697 C67.28654342 145.31141071 65.34723811 144.55370633 63.4078064 143.79632568 C60.69606599 142.73733828 57.98469863 141.67740128 55.2734375 140.6171875 C54.41396011 140.28161835 53.55448273 139.94604919 52.66896057 139.60031128 C48.1688778 137.83886284 43.680446 136.05244484 39.20410156 134.23144531 C38.28513092 133.85879547 37.36616028 133.48614563 36.41934204 133.10220337 C34.6648507 132.3891486 32.91212475 131.67172963 31.16146851 130.9493103 C29.98833603 130.47287582 29.98833603 130.47287582 28.79150391 129.98681641 C28.10537018 129.7049649 27.41923645 129.4231134 26.71231079 129.13272095 C24.72202369 128.37569094 24.72202369 128.37569094 21.875 128.53125 Z M-0.8828125 131.0390625 C-1.94688576 131.44804024 -1.94688576 131.44804024 -3.03245544 131.86528015 C-5.43971588 132.79198504 -7.84489238 133.72397321 -10.25 134.65625 C-11.97905352 135.32389411 -13.70813973 135.9914536 -15.43725586 136.65893555 C-36.53899918 144.81701803 -57.58402199 153.12096196 -78.63597107 161.40641785 C-90.48068589 166.06701561 -102.33308742 170.707884 -114.1875 175.34375 C-115.09380157 175.69821198 -116.00010315 176.05267395 -116.93386841 176.4178772 C-121.22811322 178.09735567 -125.52246581 179.77655824 -129.81689453 181.45556641 C-139.25374392 185.14537923 -148.68927863 188.83855378 -158.125 192.53125 C-158.33717575 207.71877354 -158.19305502 222.59234266 -155.125 237.53125 C-146.37953547 235.22076401 -138.05309633 231.8728064 -129.6550293 228.55526733 C-126.04889818 227.13088969 -122.43920324 225.71564266 -118.82974243 224.29972839 C-116.90214297 223.54349924 -114.97471677 222.78682832 -113.04745483 222.02973938 C-102.08649607 217.72537519 -91.1059953 213.47167485 -80.125 209.21875 C-78.0816059 208.42696817 -76.03823033 207.63513854 -73.99487305 206.84326172 C-70.89007747 205.64006051 -67.78526332 204.43690741 -64.68037415 203.23394775 C-56.97897109 200.25009663 -49.27837626 197.26416588 -41.578125 194.27734375 C-39.34505225 193.41121377 -37.11197933 192.54508421 -34.87890625 191.67895508 C-31.66712669 190.43320882 -28.45536174 189.18742495 -25.24365234 187.9414978 C-23.24446453 187.16597085 -21.24523884 186.3905415 -19.24597168 185.61521912 C-17.37581819 184.88990602 -15.50577805 184.16430058 -13.63586426 183.43836975 C-9.72559595 181.92139682 -5.81390361 180.409084 -1.89257812 178.92089844 C-0.11270508 178.24462402 -0.11270508 178.24462402 1.703125 177.5546875 C2.69731445 177.18005371 3.69150391 176.80541992 4.71582031 176.41943359 C6.81783072 175.71673291 6.81783072 175.71673291 7.875 174.53125 C7.96795815 173.08835213 7.99246513 171.64095215 7.98852539 170.19506836 C7.98844986 169.2741893 7.98837433 168.35331024 7.98829651 167.40452576 C7.98313522 166.40349319 7.97797394 165.40246063 7.97265625 164.37109375 C7.9712413 163.35149063 7.96982635 162.33188751 7.96836853 161.28138733 C7.96275097 158.01047893 7.9501955 154.73963787 7.9375 151.46875 C7.93248726 149.25716244 7.92792396 147.04557382 7.92382812 144.83398438 C7.91277584 139.39971643 7.89602063 133.96548803 7.875 128.53125 C4.73821745 128.53125 2.00761954 129.91647853 -0.8828125 131.0390625 Z M21.875 190.53125 C21.875 259.17125 21.875 327.81125 21.875 398.53125 C28.66257937 397.85249206 33.36141773 397.34598033 39.5625 395.34375 C40.23893555 395.1267041 40.91537109 394.9096582 41.61230469 394.68603516 C47.01186319 392.91418746 52.24598537 390.80285056 57.49511719 388.63330078 C78.32394254 380.16778404 100.22714103 381.41717725 121.875 385.53125 C133.68519589 369.36552088 144.30561352 352.64933614 152.90527344 334.54736328 C153.90238933 332.47430613 154.93623572 330.42277018 155.9765625 328.37109375 C166.16919242 307.98356181 181.875 275.97575168 181.875 252.53125 C167.68678354 246.81936241 153.45264151 241.23539691 139.1875 235.71875 C137.05138523 234.89164172 134.91531862 234.06440905 132.77929688 233.23706055 C128.35387466 231.52309278 123.92824987 229.80964984 119.50244141 228.09667969 C109.97992186 224.41089196 100.45872912 220.72168269 90.93807983 217.03106689 C88.90201408 216.24184317 86.86590188 215.45273927 84.82974243 214.66375732 C73.78684517 210.38461656 62.74800203 206.09545249 51.71875 201.78125 C50.75203369 201.40324753 49.78531738 201.02524506 48.78930664 200.63578796 C44.20755412 198.84397456 39.62657389 197.05022966 35.046875 195.25317383 C33.43752026 194.62315787 31.82814643 193.99319069 30.21875 193.36328125 C29.48281616 193.0736853 28.74688232 192.78408936 27.98864746 192.48571777 C25.01678044 191.12190963 25.01678044 191.12190963 21.875 190.53125 Z M-0.46875 193.36328125 C-1.24303345 193.66633179 -2.01731689 193.96938232 -2.81506348 194.28161621 C-4.51565511 194.94734878 -6.21595829 195.6138185 -7.91601562 196.28091431 C-12.59878179 198.11813827 -17.28388425 199.94938804 -21.96875 201.78125 C-22.95931396 202.16871902 -23.94987793 202.55618805 -24.97045898 202.95539856 C-36.01354905 207.27324722 -47.06879086 211.559631 -58.125 215.84375 C-60.17277757 216.63751348 -62.22054772 217.43129614 -64.26831055 218.22509766 C-73.87484567 221.94861222 -83.48225613 225.66985975 -93.09060669 229.38868713 C-97.48438 231.08945657 -101.87782969 232.79106104 -106.27124023 234.49276733 C-108.34008688 235.29382925 -110.4090906 236.09448566 -112.47827148 236.89468384 C-125.72965803 242.01929903 -138.94512913 247.22530185 -152.125 252.53125 C-141.60319995 300.40851045 -121.68930165 346.30984122 -92.125 385.53125 C-90.97386719 385.3146875 -89.82273438 385.098125 -88.63671875 384.875 C-64.22534584 380.51259006 -42.48946746 382.27833713 -19.44433594 391.87353516 C-10.66888351 395.52352225 -1.73522181 398.53125 7.875 398.53125 C7.875 329.89125 7.875 261.25125 7.875 190.53125 C5.16050011 190.53125 2.07025742 192.36416119 -0.46875 193.36328125 Z " fill="#ff8f9c" transform="translate(241.125,19.46875)"/>
<path d="M0 0 C4.88469424 1.71684265 9.70532162 3.58084136 14.51953125 5.484375 C38.89092059 15.04218048 61.37451001 13.16763459 85.52148438 3.66699219 C113.07411152 -6.99373424 140.22877333 -6.84257908 167.58496094 4.12988281 C193.15201109 14.348912 215.99776774 14.37357665 241.5078125 3.8984375 C269.36270077 -7.11396019 296.82870832 -6.87613274 324.54199219 4.12988281 C350.05409794 14.10406425 373.15930707 13.7256802 398.5078125 3.8984375 C412.54018137 -1.49252907 427.30432316 -6.02796736 442.5078125 -4.1015625 C445.60458034 -2.34366129 446.32770784 -1.65388347 447.4453125 1.7734375 C447.51932894 5.47425957 446.7448201 6.99861283 444.5078125 9.8984375 C442.24648503 11.02910124 440.76106752 11.10594527 438.24609375 11.2578125 C424.57861563 12.22113652 413.48740598 15.02866786 400.79321289 20.24047852 C399.8475647 20.62804321 399.8475647 20.62804321 398.8828125 21.0234375 C398.26204834 21.27859131 397.64128418 21.53374512 397.00170898 21.79663086 C387.87461157 25.4645074 378.3207398 27.42844243 368.5078125 27.8984375 C367.42371094 27.95128906 366.33960938 28.00414062 365.22265625 28.05859375 C349.42247412 28.44726133 334.95640537 25.68756222 320.39111328 19.66699219 C317.3310349 18.41820729 314.23811614 17.28068414 311.1328125 16.1484375 C310.09382813 15.76171875 309.05484375 15.375 307.984375 14.9765625 C285.10378882 7.88100993 263.27640098 12.11128762 241.73974609 21.02954102 C214.33493312 32.27588085 185.59481852 28.84373236 158.8203125 17.7734375 C133.5761926 7.53442766 109.26427226 10.86713785 84.74169922 21.02954102 C78.07215684 23.76870174 71.64371403 25.71422494 64.5078125 26.8984375 C63.76144531 27.02734375 63.01507813 27.15625 62.24609375 27.2890625 C41.10783283 30.2585779 21.19853459 25.79848376 1.8203125 17.7734375 C-8.79029257 13.40704116 -18.88941616 11.59147686 -30.27734375 11.3046875 C-33.69709385 10.87254411 -35.09618206 10.32900071 -37.4921875 7.8984375 C-38.68526912 4.23965388 -38.81886494 2.59846058 -37.1796875 -0.9140625 C-30.56437674 -9.48946534 -8.30288583 -2.6190311 0 0 Z " fill="#ff8f9c" transform="translate(51.4921875,464.1015625)"/>
</svg>